<?xml version="1.0" encoding="UTF-8" standalone="no"?>
<svg
   viewBox="0 0 100 100"
   x="0px"
   y="0px"
   version="1.1"
   id="svg140"
   sodipodi:docname="noun-email-6073188.svg"
   width="100"
   height="100"
   inkscape:version="1.2.2 (b0a84865, 2022-12-01)"
   xmlns:inkscape="http://www.inkscape.org/namespaces/inkscape"
   xmlns:sodipodi="http://sodipodi.sourceforge.net/DTD/sodipodi-0.dtd"
   xmlns="http://www.w3.org/2000/svg"
   xmlns:svg="http://www.w3.org/2000/svg">
  <defs
     id="defs144" />
  <sodipodi:namedview
     id="namedview142"
     pagecolor="#ffffff"
     bordercolor="#999999"
     borderopacity="1"
     inkscape:showpageshadow="0"
     inkscape:pageopacity="0"
     inkscape:pagecheckerboard="0"
     inkscape:deskcolor="#d1d1d1"
     showgrid="false"
     inkscape:zoom="5.9"
     inkscape:cx="46.355932"
     inkscape:cy="43.389831"
     inkscape:window-width="1280"
     inkscape:window-height="800"
     inkscape:window-x="0"
     inkscape:window-y="32"
     inkscape:window-maximized="0"
     inkscape:current-layer="svg140" />
  <g
     data-name="Layer 2"
     id="g134"
     transform="matrix(3.0338983,0,0,3.0338983,1.4576239,1.4576239)">
    <path
       d="M 3.461,6.439 A 2.96,2.96 0 0 1 5,6 h 22 a 2.96,2.96 0 0 1 1.539,0.439 l -11.984,7.99 a 1,1 0 0 1 -1.11,0 z m 14.2,9.654 a 2.994,2.994 0 0 1 -3.328,0 L 2.187,7.993 A 2.955,2.955 0 0 0 2,9 v 14 a 3,3 0 0 0 3,3 h 22 a 3,3 0 0 0 3,-3 V 9 A 2.979,2.979 0 0 0 29.814,7.993 Z"
       id="path132" />
  </g>
</svg>
