<?xml version="1.0" encoding="UTF-8" standalone="no"?>
<svg
   version="1.1"
   x="0px"
   y="0px"
   viewBox="0 0 100 100"
   xml:space="preserve"
   id="svg267"
   sodipodi:docname="grad.svg"
   width="100"
   height="100"
   inkscape:version="1.2.2 (b0a84865, 2022-12-01)"
   xmlns:inkscape="http://www.inkscape.org/namespaces/inkscape"
   xmlns:sodipodi="http://sodipodi.sourceforge.net/DTD/sodipodi-0.dtd"
   xmlns="http://www.w3.org/2000/svg"
   xmlns:svg="http://www.w3.org/2000/svg"><defs
     id="defs271" /><sodipodi:namedview
     id="namedview269"
     pagecolor="#ffffff"
     bordercolor="#999999"
     borderopacity="1"
     inkscape:showpageshadow="0"
     inkscape:pageopacity="0"
     inkscape:pagecheckerboard="0"
     inkscape:deskcolor="#d1d1d1"
     showgrid="false"
     inkscape:zoom="5.2718657"
     inkscape:cx="49.697776"
     inkscape:cy="46.378268"
     inkscape:window-width="1280"
     inkscape:window-height="771"
     inkscape:window-x="0"
     inkscape:window-y="33"
     inkscape:window-maximized="0"
     inkscape:current-layer="svg267" /><path
     d="m 95.099701,39.096489 -44.130787,15.70932 c -0.620105,0.206701 -1.24021,0.206701 -1.756964,0 L 4.9778123,39.096489 c -2.3770682,-0.826807 -2.3770682,-4.134032 0,-4.960838 L 49.108599,18.32298 c 0.620105,-0.206702 1.24021,-0.206702 1.756964,0 l 44.234138,15.812671 c 2.273719,0.826806 2.273719,4.134031 0,4.960838 z M 91.895827,57.079526 V 45.81429 l -5.270891,1.860314 v 9.611624 c -1.033507,0.826806 -1.756962,2.170366 -1.756962,3.617277 0,2.58377 2.067016,4.547435 4.547435,4.547435 2.480419,0 4.547435,-2.067016 4.547435,-4.547435 0,-1.653612 -0.826807,-3.100523 -2.067017,-3.823979 z m -41.85707,3.203875 c -0.930157,0 -1.860314,-0.103351 -2.687121,-0.413403 L 18.930169,49.74162 v 22.013718 c 18.499791,13.435603 43.614033,13.435603 62.113825,0 v 0 -22.117069 L 52.725877,59.766647 c -0.930157,0.310052 -1.756963,0.516754 -2.68712,0.516754 z"
     id="path261"
     style="stroke-width:1.03351" /></svg>
