<?xml version="1.0" encoding="UTF-8" standalone="no"?>
<svg
   version="1.1"
   x="0px"
   y="0px"
   viewBox="0 0 100 100"
   enable-background="new 0 0 101 101"
   xml:space="preserve"
   id="svg508"
   sodipodi:docname="links.svg"
   width="100"
   height="100"
   inkscape:version="1.2.2 (b0a84865, 2022-12-01)"
   xmlns:inkscape="http://www.inkscape.org/namespaces/inkscape"
   xmlns:sodipodi="http://sodipodi.sourceforge.net/DTD/sodipodi-0.dtd"
   xmlns="http://www.w3.org/2000/svg"
   xmlns:svg="http://www.w3.org/2000/svg"><defs
     id="defs512" /><sodipodi:namedview
     id="namedview510"
     pagecolor="#ffffff"
     bordercolor="#999999"
     borderopacity="1"
     inkscape:showpageshadow="0"
     inkscape:pageopacity="0"
     inkscape:pagecheckerboard="0"
     inkscape:deskcolor="#d1d1d1"
     showgrid="false"
     inkscape:zoom="2.1168283"
     inkscape:cx="26.690876"
     inkscape:cy="58.814407"
     inkscape:window-width="1280"
     inkscape:window-height="771"
     inkscape:window-x="0"
     inkscape:window-y="33"
     inkscape:window-maximized="0"
     inkscape:current-layer="svg508" /><g
     id="g502"
     transform="matrix(1.6275178,0,0,1.6275178,-32.188834,-32.190463)"><path
       d="M 61.238,47.047 C 60.541,45.481 59.564,44.007 58.279,42.722 56.993,41.438 55.52,40.46 53.954,39.763 l -1.94,1.94 -1.348,1.347 -1.399,1.399 c -0.26,0.259 -0.481,0.541 -0.674,0.836 1.857,0.121 3.595,0.87 4.923,2.199 1.366,1.365 2.076,3.123 2.194,4.912 0.067,0.994 -0.056,1.99 -0.375,2.945 -0.354,1.062 -0.924,2.063 -1.752,2.917 -0.026,0.025 -0.041,0.056 -0.065,0.081 l -1.589,1.587 -2.204,2.204 -2.056,2.057 -5.359,5.359 c -1.45,1.45 -3.376,2.247 -5.428,2.247 -2.048,0 -3.978,-0.799 -5.428,-2.249 -1.448,-1.448 -2.246,-3.376 -2.246,-5.426 0,-2.05 0.797,-3.979 2.247,-5.428 l 5.367,-5.368 c -0.307,-0.952 -0.526,-1.926 -0.661,-2.909 -0.1,-0.733 -0.168,-1.47 -0.171,-2.209 -0.01,-1.358 0.158,-2.715 0.472,-4.044 l -9.77,9.769 c -5.625,5.627 -5.625,14.751 0,20.378 2.814,2.812 6.501,4.22 10.188,4.22 3.689,0 7.376,-1.407 10.189,-4.22 l 9.755,-9.755 1.453,-1.451 c 0.831,-0.832 1.525,-1.748 2.11,-2.71 0.921,-1.51 1.547,-3.146 1.86,-4.834 0.161,-0.868 0.247,-1.747 0.247,-2.628 0.002,-1.075 -0.13,-2.148 -0.368,-3.202 -0.204,-0.915 -0.5,-1.812 -0.888,-2.68 z"
       id="path498" /><path
       d="m 74.307,26.694 c -2.814,-2.813 -6.502,-4.22 -10.188,-4.22 -3.689,0.001 -7.376,1.407 -10.189,4.221 l -9.754,9.754 -1.453,1.453 c -0.832,0.832 -1.525,1.748 -2.111,2.709 -0.92,1.51 -1.547,3.146 -1.861,4.834 -0.161,0.868 -0.247,1.748 -0.247,2.628 -10e-4,1.075 0.13,2.148 0.368,3.203 0.207,0.914 0.503,1.811 0.891,2.68 0.697,1.565 1.673,3.038 2.959,4.323 1.286,1.285 2.758,2.262 4.325,2.96 l 1.939,-1.939 1.348,-1.347 1.398,-1.398 c 0.26,-0.26 0.482,-0.542 0.675,-0.838 -1.858,-0.121 -3.596,-0.869 -4.925,-2.199 -1.368,-1.367 -2.078,-3.129 -2.196,-4.922 -0.064,-0.991 0.061,-1.982 0.378,-2.935 0.352,-1.062 0.922,-2.064 1.752,-2.917 0.025,-0.025 0.041,-0.055 0.066,-0.081 l 1.588,-1.588 2.205,-2.204 2.057,-2.057 5.358,-5.357 c 1.45,-1.45 3.377,-2.249 5.429,-2.249 2.05,0 3.978,0.799 5.426,2.248 2.994,2.993 2.994,7.863 0.002,10.855 l -5.369,5.368 c 0.308,0.953 0.526,1.926 0.661,2.91 0.101,0.733 0.168,1.47 0.171,2.208 0.01,1.359 -0.157,2.715 -0.474,4.044 l 9.771,-9.769 c 5.625,-5.627 5.625,-14.751 0,-20.378 z"
       id="path500" /></g></svg>
