<?xml version="1.0" encoding="UTF-8" standalone="no"?>
<svg
   viewBox="0 0 416 416"
   x="0px"
   y="0px"
   version="1.1"
   id="svg8151"
   sodipodi:docname="wrench.svg"
   width="416"
   height="416"
   xmlns:inkscape="http://www.inkscape.org/namespaces/inkscape"
   xmlns:sodipodi="http://sodipodi.sourceforge.net/DTD/sodipodi-0.dtd"
   xmlns="http://www.w3.org/2000/svg"
   xmlns:svg="http://www.w3.org/2000/svg">
  <defs
     id="defs8155" />
  <sodipodi:namedview
     id="namedview8153"
     pagecolor="#ffffff"
     bordercolor="#999999"
     borderopacity="1"
     inkscape:showpageshadow="0"
     inkscape:pageopacity="0"
     inkscape:pagecheckerboard="0"
     inkscape:deskcolor="#d1d1d1"
     showgrid="false" />
  <path
     d="m 393.1289,83.1 -44.9,45.1 c -0.9,0.9 -2.3,1.3 -3.5,1.1 l -46.4,-8.4 c -1.6,-0.3 -2.9,-1.6 -3.2,-3.2 l -8.3,-46.4 c -0.2,-1.3 0.2,-2.6 1.1,-3.5 l 44.8,-45 c 3.5,-3.5 3,-9.3 -1,-12.1 -10.1,-7.2 -22.1,-10.7 -31.8,-10.7 -0.7,0 -1.4,0 -2,0.1 -12.5,0.7 -39.3,7.7 -60,29.7 -20.1,21.2 -41.1,60.6 -22.5,104.5 2.2,5.3 4.7,12.3 -2.7,19.7 -7.6,7.4 -199.700001,188.3 -199.700001,188.3 -17.9999999,15.5 -16.6999999,44.2 -0.1,60.9 8.5,8.4 20,12.8 31.3,12.8 11.1,0 21.9,-4.2 29.6,-13.1 0,0 179.400001,-191.1 188.200001,-199.8 4,-3.9 7.7,-5.1 11.1,-5.1 3.3,0 6.3,1.2 8.6,2.4 9.9,5.1 21,7.4 32.4,7.4 26.8,0 55,-12.4 72.2,-29.6 24.4,-24.4 28.9,-48 29.6,-60.1 0.6,-9.9 -2.2,-22.6 -10.7,-34.2 -2.9,-3.8 -8.6,-4.2 -12.1,-0.8 z M 54.528899,381.3 c -5.5,5.4 -14.4,5.4 -19.9,0 -5.4,-5.5 -5.4,-14.4 0,-19.9 5.5,-5.4 14.4,-5.4 19.9,0 5.4,5.6 5.4,14.5 0,19.9 z"
     id="path8145" />
</svg>
