<?xml version="1.0" encoding="UTF-8" standalone="no"?>
<svg
   viewBox="0 0 416.00681 416"
   x="0px"
   y="0px"
   version="1.1"
   id="svg138"
   sodipodi:docname="wrench.svg"
   width="416.00681"
   height="416"
   inkscape:version="1.2.2 (b0a84865, 2022-12-01)"
   xmlns:inkscape="http://www.inkscape.org/namespaces/inkscape"
   xmlns:sodipodi="http://sodipodi.sourceforge.net/DTD/sodipodi-0.dtd"
   xmlns="http://www.w3.org/2000/svg"
   xmlns:svg="http://www.w3.org/2000/svg">
  <defs
     id="defs142" />
  <sodipodi:namedview
     id="namedview140"
     pagecolor="#ffffff"
     bordercolor="#999999"
     borderopacity="1"
     inkscape:showpageshadow="0"
     inkscape:pageopacity="0"
     inkscape:pagecheckerboard="0"
     inkscape:deskcolor="#d1d1d1"
     showgrid="false"
     inkscape:zoom="0.65349259"
     inkscape:cx="149.96344"
     inkscape:cy="239.48244"
     inkscape:window-width="1280"
     inkscape:window-height="771"
     inkscape:window-x="0"
     inkscape:window-y="33"
     inkscape:window-maximized="0"
     inkscape:current-layer="svg138" />
  <path
     d="m 374.06155,95.964309 -40.27544,40.454841 c -0.8073,0.8073 -2.06311,1.1661 -3.13951,0.9867 l -41.62094,-7.53482 c -1.43521,-0.2691 -2.60131,-1.43521 -2.87041,-2.87041 l -7.44513,-41.620948 c -0.1794,-1.166104 0.1794,-2.332208 0.9867,-3.139511 l 40.18574,-40.36514 c 3.13951,-3.139511 2.69101,-8.34213 -0.897,-10.853738 -9.05973,-6.458423 -19.82377,-9.597934 -28.5247,-9.597934 -0.6279,0 -1.2558,0 -1.79401,0.0897 -11.21253,0.627902 -35.25222,6.906924 -53.82018,26.640992 -18.02977,19.016467 -36.86683,54.358389 -20.18257,93.736829 1.9734,4.75412 4.21591,11.03314 -2.42191,17.67096 -6.81723,6.63782 -179.131527,168.90569 -179.131527,168.90569 -16.146057,13.90355 -14.979953,39.64754 -0.0897,54.62749 7.624527,7.53483 17.940063,11.48164 28.076198,11.48164 9.956735,0 19.644369,-3.76741 26.551293,-11.75074 0,0 160.922356,-171.4173 168.815986,-179.22123 3.58801,-3.49831 6.90693,-4.57471 9.95674,-4.57471 2.96011,0 5.65112,1.0764 7.71422,2.15281 8.88034,4.57471 18.83707,6.63782 29.06291,6.63782 24.03968,0 49.33517,-11.12284 64.76362,-26.55129 21.88688,-21.88688 25.92339,-43.05615 26.55129,-53.90989 0.53821,-8.88033 -1.9734,-20.27227 -9.59793,-30.677509 -2.60131,-3.408612 -7.71423,-3.767413 -10.85374,-0.717603 z M 70.336292,363.45064 c -4.933517,4.84382 -12.916845,4.84382 -17.850362,0 -4.843817,-4.93352 -4.843817,-12.91684 0,-17.85036 4.933517,-4.84382 12.916845,-4.84382 17.850362,0 4.843817,5.02322 4.843817,13.00655 0,17.85036 z"
     id="path132"
     style="stroke-width:0.897003" />
</svg>
